<?xml version="1.0" standalone="no"?>
<!DOCTYPE svg PUBLIC "-//W3C//DTD SVG 20010904//EN"
 "http://www.w3.org/TR/2001/REC-SVG-20010904/DTD/svg10.dtd">
<svg version="1.0" xmlns="http://www.w3.org/2000/svg"
 width="500.000000pt" height="500.000000pt" viewBox="0 0 500.000000 500.000000"
 preserveAspectRatio="xMidYMid meet">
<metadata>
Created by potrace 1.15, written by Peter Selinger 2001-2017
</metadata>
<g transform="translate(0.000000,500.000000) scale(0.100000,-0.100000)"
fill="#000000" stroke="none">
<path d="M800 3328 c0 -763 4 -1268 11 -1343 67 -775 568 -1354 1309 -1513
157 -34 343 -47 484 -32 99 10 340 60 354 74 2 2 -32 7 -75 11 -449 39 -783
268 -988 675 -66 131 -96 214 -134 371 -43 181 -56 292 -54 499 1 210 17 346
64 520 138 518 453 859 896 970 43 11 134 25 203 31 353 33 689 -76 933 -301
133 -122 271 -337 342 -530 15 -41 31 -84 36 -95 6 -12 7 329 4 860 -3 484 -5
913 -5 953 l0 72 -1690 0 -1690 0 0 -1222z"/>
<path d="M2830 3456 c-286 -73 -461 -313 -544 -744 -38 -198 -50 -361 -49
-667 1 -495 47 -762 176 -1025 44 -90 64 -117 137 -191 59 -59 104 -95 148
-117 189 -93 454 -81 622 28 202 132 325 385 387 796 27 178 26 875 -1 1049
-51 334 -136 549 -274 696 -74 79 -131 118 -227 155 -59 23 -89 27 -195 30
-85 2 -143 -1 -180 -10z"/>
</g>
</svg>
